<svg xmlns="http://www.w3.org/2000/svg" viewBox="0 0 272 80" width="272" height="80" role="img" aria-label="osapi">
  <title>osapi</title>
  <rect x="8" y="8" width="16" height="32" fill="#6f6f6f" opacity="0.25"/>
  <rect x="8" y="40" width="16" height="32" fill="#b06a1e"/>
  <rect x="24" y="8" width="16" height="16" fill="#6f6f6f"/>
  <rect x="24" y="56" width="16" height="16" fill="#b06a1e"/>
  <rect x="40" y="8" width="16" height="32" fill="#6f6f6f" opacity="0.25"/>
  <rect x="40" y="40" width="16" height="32" fill="#b06a1e"/>
  <rect x="72" y="8" width="16" height="32" fill="#6f6f6f"/>
  <rect x="72" y="56" width="16" height="16" fill="#b06a1e"/>
  <rect x="88" y="8" width="16" height="16" fill="#6f6f6f"/>
  <rect x="88" y="40" width="16" height="32" fill="#b06a1e"/>
  <rect x="120" y="24" width="16" height="16" fill="#6f6f6f"/>
  <rect x="120" y="40" width="16" height="32" fill="#b06a1e"/>
  <rect x="136" y="8" width="16" height="16" fill="#6f6f6f"/>
  <rect x="136" y="40" width="16" height="16" fill="#b06a1e"/>
  <rect x="152" y="8" width="16" height="32" fill="#6f6f6f"/>
  <rect x="152" y="40" width="16" height="32" fill="#b06a1e" opacity="0.25"/>
  <rect x="184" y="8" width="16" height="32" fill="#6f6f6f"/>
  <rect x="184" y="40" width="16" height="32" fill="#b06a1e"/>
  <rect x="200" y="8" width="16" height="16" fill="#6f6f6f"/>
  <rect x="200" y="40" width="16" height="16" fill="#b06a1e"/>
  <rect x="216" y="8" width="16" height="32" fill="#6f6f6f"/>
  <rect x="216" y="40" width="16" height="16" fill="#b06a1e"/>
  <rect x="248" y="8" width="16" height="32" fill="#6f6f6f"/>
  <rect x="248" y="40" width="16" height="32" fill="#b06a1e"/>
</svg>
